<?xml version="1.0" standalone="no"?><svg xmlns="http://www.w3.org/2000/svg" viewBox="0 0 1440 320"><path fill="#0f522c" fill-opacity="0.2" d="M0,192L0,192L72,192L72,256L144,256L144,192L216,192L216,128L288,128L288,96L360,96L360,128L432,128L432,320L504,320L504,224L576,224L576,160L648,160L648,64L720,64L720,256L792,256L792,160L864,160L864,160L936,160L936,160L1008,160L1008,96L1080,96L1080,32L1152,32L1152,0L1224,0L1224,128L1296,128L1296,192L1368,192L1368,96L1440,96L1440,320L1368,320L1368,320L1296,320L1296,320L1224,320L1224,320L1152,320L1152,320L1080,320L1080,320L1008,320L1008,320L936,320L936,320L864,320L864,320L792,320L792,320L720,320L720,320L648,320L648,320L576,320L576,320L504,320L504,320L432,320L432,320L360,320L360,320L288,320L288,320L216,320L216,320L144,320L144,320L72,320L72,320L0,320L0,320Z"></path></svg>